HIERARCHY
ROOT base
{
	OFFSET 0.0 0.0 0.0
	CHANNELS 6 Xposition Yposition Zposition Zrotation Yrotation Xrotation
	JOINT root
	{
		OFFSET 0 0 0
		CHANNELS 6 Xposition Yposition Zposition Zrotation Yrotation Xrotation
		JOINT chest
		{
			OFFSET 0 4.72302 0
			CHANNELS 3 Zrotation Yrotation Xrotation
			JOINT neck
			{
				OFFSET 0 4.47788 0
				CHANNELS 3 Zrotation Yrotation Xrotation
				End Site
				{
					OFFSET 0.0 0.0 0.0
				}
			}
			JOINT right_shoulder
			{
				OFFSET -0.481 4.87 3.6622
				CHANNELS 3 Zrotation Yrotation Xrotation
				JOINT right_elbow
				{
					OFFSET 0 -5.49576 0
					CHANNELS 3 Zrotation Yrotation Xrotation
					JOINT right_wrist
					{
						OFFSET 0 -5.17894 0
						CHANNELS 3 Zrotation Yrotation Xrotation
						End Site
						{
							OFFSET 0.0 0.0 0.0
						}
					}
				}
			}
			JOINT left_shoulder
			{
				OFFSET -0.481 4.87 -3.6622
				CHANNELS 3 Zrotation Yrotation Xrotation
				JOINT left_elbow
				{
					OFFSET 0 -5.49576 0
					CHANNELS 3 Zrotation Yrotation Xrotation
					JOINT left_wrist
					{
						OFFSET 0 -5.17894 0
						CHANNELS 3 Zrotation Yrotation Xrotation
						End Site
						{
							OFFSET 0.0 0.0 0.0
						}
					}
				}
			}
		}
		JOINT right_hip
		{
			OFFSET 0 0 1.69774
			CHANNELS 3 Zrotation Yrotation Xrotation
			JOINT right_knee
			{
				OFFSET 0 -8.43092 0
				CHANNELS 3 Zrotation Yrotation Xrotation
				JOINT right_ankle
				{
					OFFSET 0 -8.1974 0
					CHANNELS 3 Zrotation Yrotation Xrotation
					End Site
					{
						OFFSET 0.0 0.0 0.0
					}
				}
			}
		}
		JOINT left_hip
		{
			OFFSET 0 0 -1.69774
			CHANNELS 3 Zrotation Yrotation Xrotation
			JOINT left_knee
			{
				OFFSET 0 -8.43092 0
				CHANNELS 3 Zrotation Yrotation Xrotation
				JOINT left_ankle
				{
					OFFSET 0 -8.1974 0
					CHANNELS 3 Zrotation Yrotation Xrotation
					End Site
					{
						OFFSET 0.0 0.0 0.0
					}
				}
			}
		}
	}
	JOINT red_arrow
	{
		OFFSET 0 0 0
		CHANNELS 3 Zrotation Yrotation Xrotation
		End Site
		{
			OFFSET 0.0 0.0 0.0
		}
	}
	JOINT blue_arrow
	{
		OFFSET 0 0 0
		CHANNELS 3 Zrotation Yrotation Xrotation
		End Site
		{
			OFFSET 0.0 0.0 0.0
		}
	}
}
MOTION
Frames: 8
Frame Time: 0.0333333333333333
0 18.08466 0 0 0 0 0 0 0 0 -90 0 0 0 0 0 0 0 0 0 -90 0 0 0 0 0 0 0 0 90 0 0 0 0 0 0 0 0 0 0 0 0 0 0 0 0 0 0 0 0 0 0 0 0 0 0 0 0 0 0
1.65367606282234 0 -0.0350432679057121 0 -7.63765322783534 0 0 16.0046612143517 0 -27.0189081244446 -2.78298534628058E-15 -10.5719923072262 0.10754491435073 -0.0627873626241658 7.79204865718447 -2.39316492534497 -2.39195563066061 1.06457261925477 -0.170485379366101 22.3389241172792 -30.98167785599 75.9093563976877 0 0 0 0 0 -22.9796736738425 -22.1454517929131 36.1560719238714 64.0234885247882 0 0 0 0 0 53.7181975710206 -2.73863513735786 10.4788456740486 -45.7524729478156 0 0 19.2879283883804 4.23966032451401 -1.20065457273484 33.4388595348598 2.24629520490117 12.731486334833 -97.6945589441452 0 0 0.945456592019658 8.08032764184064 -15.9510003206288 0 0 0 0 0 0
3.55270029306412 0 0.00261112749576572 0 -7.8957621398096 0 0 16.3638828754425 0 -27.7369858670764 -4.34285407863369 -12.3132556269196 1.72513650276111 2.4142416075945 5.94379055408951 -2.9477758426982 -5.02447190911708 1.65830197716827 17.3250277822644 30.5691650253774 -33.0896516042908 79.2342856554608 0 0 0 0 0 -45.922626521478 -24.1470982540118 45.7929357213503 53.4643644075962 0 0 0 0 0 43.3436959738894 -3.63368122708506 13.2910898453631 -37.081732211592 0 0 21.605740882603 9.55984836820592 -0.885134554952481 50.8797312962667 -5.43012226593008 17.8593256523743 -104.969366108369 0 0 7.15739789523148 17.71538509393 -20.8000463650513 0 0 0 0 0 0
5.89523743987083 0 -0.15788157582283 0 -7.88103457438958 0 0 16.9152469396591 0 -26.1790663916323 0.251119705288406 -12.0337407630967 -0.68548996650623 0.953273423302893 3.09533115196651 -0.342867468129766 -9.43930110857786 1.20369218644331 26.6894786022413 31.7353284173792 -33.9164396396866 91.5990932231507 0 0 0 0 0 -58.8344800341525 -19.3367385367357 49.8604365502003 60.3150987866323 0 0 0 0 0 24.5958846942384 -2.12353165654932 10.4559314552846 -19.2700502713974 0 0 17.7786814173387 8.40328088884547 -0.17119842838249 59.7864173342951 -11.8681771732129 13.5766987454554 -100.865897738052 0 0 6.93249106517696 24.273530213343 -30.3211196036777 0 0 0 0 0 0
8.02356756925583 0 -0.474122339487076 0 -7.63170238577967 0 0 17.4642398118973 0 -27.9037748225362 4.18861551672559 -11.3666591520368 -1.53362255085632 0.224292543325448 1.4139256658068 2.98992996252067 -11.0525887549844 0.763182191186955 31.3819857454147 31.4271331858148 -36.2858167233202 100.86460000211 0 0 0 0 0 -66.2230183700125 -12.2398151204237 50.0001889792656 67.7767799265478 0 0 0 0 0 16.1549619059522 -0.629874624530314 7.79223815423947 -11.1997258519002 0 0 1.63604749090004 4.33167436578498 -1.06187930633981 68.7244040442093 -14.5047888260682 7.80665462847499 -88.8199712121426 0 0 8.01041263522386 22.7572219805772 -32.306172377606 0 0 0 0 0 0
10.1421455621719 0 -0.882941143214703 0 -7.21060901466158 0 0 17.9018260598183 0 -28.9149271360117 7.01401562890787 -10.5771721991848 -3.8074392857235 0.0897560700793612 0.884049612195356 3.34961180081707 -9.1490012893177 0.58514962594877 34.2738186778854 31.0597482747422 -40.7365341809558 105.952339612961 0 0 0 0 0 -67.5116755440164 -7.27555902011571 45.7632397502999 69.8917548332314 0 0 0 0 0 9.89272842228975 0.190208976207826 5.41204606174208 -7.98192213484333 0 0 -23.016511159776 1.42777619103432 -0.2822046629712 72.1754907949654 -13.4560262792236 3.60523233225374 -70.5427469932145 0 0 10.1803983157459 21.1809265874471 -32.980097329281 0 0 0 0 0 0
12.3073839604855 0 -1.3018183350563 0 -6.66088011396978 0 0 18.0797221422195 0 -29.3099388024492 9.13187697134055 -9.607475214926 -4.99698475283603 0.385574743979239 0.556273613145614 1.07029073550659 -5.85377510122571 -0.137310618799099 36.1198806094721 30.465600248403 -45.0372582610888 106.092618038134 0 0 0 0 0 -66.0329620280727 -2.26064927097156 40.9826780961864 69.7306853122241 0 0 0 0 0 4.47872382374516 0.803627436902512 3.49048978010034 -9.91190136785716 0 0 -36.5335208522162 0.680042740471015 0.109918371027764 71.9634900595707 -12.0051277756545 0.872685542596079 -49.6195894520935 0 0 12.5198476938229 19.9587113118848 -31.7190202745871 0 0 0 0 0 0
14.6191198587418 0 -1.73785675913095 0 -6.07204240011922 0 0 17.9646682500839 0 -27.5760801504561 9.94387083139301 -8.12954362230785 -6.45903315175693 1.02838157496252 0.24248500436979 -2.42196622866042 -3.59216267975183 -2.91738382681543 36.5217340461779 28.858117679046 -46.9472429343085 105.043596604269 0 0 0 0 0 -63.3193679374124 2.6621064198262 36.0965869864844 69.3604549082636 0 0 0 0 0 -1.16025566317492 1.09799430710367 1.87961783243284 -16.9545939446483 0 0 -40.9549493022333 0.271611809957181 -0.0752214218656252 67.8687697581652 -10.4024041777284 -0.331398928495573 -32.9763001618887 0 0 14.4337389587166 18.4582770201886 -28.6970457538989 0 0 0 0 0 0
